<svg xmlns="http://www.w3.org/2000/svg" width="512.001" height="483.155" viewBox="0 0 512.001 483.155"><defs><style>.a{fill:#ffe07d;}.a,.b,.c,.d,.e,.f,.g,.h,.i,.j{fill-rule:evenodd;}.b{fill:#ff8086;}.c{fill:#ffc269;}.d{fill:#f76672;}.e{fill:#6f6571;}.f{fill:#eceaec;}.g{fill:#dad8db;}.h{fill:#ffece4;}.i{fill:#5d5360;}.j{fill:#ffddce;}</style></defs><g transform="translate(0.001 213.842)"><path class="a" d="M512,228.265H382.021v45.153A20.322,20.322,0,0,0,402.287,293.7H449.04l27.888,14.087L512,293.7V228.265Z" transform="translate(-382.021 -228.265)"/></g><g transform="translate(0.001 148.319)"><path class="a" d="M491.734,162.742H402.288a20.322,20.322,0,0,0-20.266,20.282v33.551H512V183.024A20.322,20.322,0,0,0,491.734,162.742Z" transform="translate(-382.022 -162.742)"/></g><g transform="translate(0.001 192.04)"><path class="b" d="M512,206.463H382.022v31.885H512Z" transform="translate(-382.022 -206.463)"/></g><g transform="translate(0.001 148.318)"><path class="c" d="M491.733,206.463H464.6V183.024a20.329,20.329,0,0,1,20.267-20.283H512a20.322,20.322,0,0,0-20.266,20.282v23.44Z" transform="translate(-464.604 -162.741)"/></g><g transform="translate(0.001 192.04)"><path class="d" d="M512,238.348H484.871V206.463H512v31.885Z" transform="translate(-484.871 -206.463)"/></g><g transform="translate(0 223.925)"><path class="c" d="M491.735,238.348v35.071A20.322,20.322,0,0,0,512,293.7H484.872A20.256,20.256,0,0,1,464.6,273.419V238.348h27.13Z" transform="translate(-464.605 -238.348)"/></g><g transform="translate(67.019 279.277)"><path class="e" d="M290.337,293.7h-62.96v28.962a12.66,12.66,0,0,0,12.615,12.625h204.99c0-18.207,0-27.472-13.929-27.472l-27.742-.029c-17.463-.029-28.91-4.5-35.3-14.087H290.337Z" transform="translate(-227.377 -293.7)"/></g><g transform="translate(65.147 320.866)"><path class="a" d="M337.375,335.289H157.111c-10.571,18.412-19.069,40.536-11.739,82.854C157.637,376.409,282.213,393.068,295,441.231H432.457c5.2-11.778,10.1-23.41,14.4-35.158H408.1c-78.378-29.577-53.177-16.4-70.728-70.784Z" transform="translate(-142.623 -335.289)"/></g><g transform="translate(176.791 100.958)"><path class="f" d="M330.56,222.157a294.262,294.262,0,0,1-10.425,39.951L280.51,277.634l-44.184-15.526c1.548-83.614,32.794-123.711,59.368-136.687a64.509,64.509,0,0,1,19.39-10.04s12.907,20.649,13.579,20.649c4.964,11.807,6.833,27.209,6.512,43.838Z" transform="translate(-236.326 -115.381)"/></g><g transform="translate(176.65 247.685)"><path class="b" d="M208.5,262.108h83.81c19.3,2.1,43.044,16.8,43.044,62.338v47.725L316.331,383.5l-24.724-11.329V335.288c0-18.207,0-27.472-13.929-27.472l-27.742-.029c-17.463-.029-28.91-4.5-35.3-14.087-4.936-7.393-6.834-17.827-6.134-31.592Z" transform="translate(-208.357 -262.108)"/></g><g transform="translate(176.79 110.998)"><path class="g" d="M262.7,262.108C264.25,178.494,295.5,138.4,322.07,125.421a53.668,53.668,0,0,0,13.141,6.751c-23.537,17.8-47.132,57.574-48.475,129.936Z" transform="translate(-262.702 -125.421)"/></g><g transform="translate(176.65 247.685)"><path class="d" d="M286.759,262.108h24.033c-.7,13.765,1.2,24.2,6.132,31.593a36.1,36.1,0,0,0,18.427,14.087H328.2c-17.463-.029-28.91-4.5-35.3-14.087C287.957,286.307,286.059,275.873,286.759,262.108Z" transform="translate(-286.619 -262.108)"/></g><g transform="translate(64.535 349.156)"><path class="b" d="M447.466,441.231c0-43.224-34.254-77.652-76.509-77.652a76.5,76.5,0,0,0-73.122,54.564,78.366,78.366,0,0,0-3.358,20.633c-.088,2.806,1.84,2.455,4.468,2.455q74.246,0,148.521,0Z" transform="translate(-294.474 -363.579)"/></g><g transform="translate(81.825 426.808)"><path class="e" d="M430.176,441.231H313.718c1.664,31.388,27.1,56.347,58.229,56.347s56.565-24.959,58.229-56.347Z" transform="translate(-313.718 -441.231)"/></g><g transform="translate(393.821 414.387)"><path class="e" d="M116.859,428.81,16.667,451.869A51.406,51.406,0,1,0,116.859,428.81Z" transform="translate(-16.667 -428.81)"/></g><g transform="translate(374.05 355.97)"><path class="f" d="M127.467,400.724a69.932,69.932,0,0,0-64.449-29.985C17.7,380.325,2.949,407.417,0,441.2a69.834,69.834,0,0,0,1.548,13.824c.292,1.286,1.139.76,2.541.438l15.682-3.6L119.963,428.81l7.5-1.724,10.483-2.426a69.374,69.374,0,0,0-10.484-23.936Z" transform="translate(0 -370.393)"/></g><g transform="translate(344.906 207.997)"><path class="b" d="M167.1,370.622,126.621,230.574,108.4,222.42l-20.383,8.154c26.778,74.233,19.3,126.049,1.226,175.5-4.322,11.749-9.228,23.38-14.4,35.158H103.96Z" transform="translate(-74.845 -222.42)"/></g><g transform="translate(245.736 49.011)"><path class="h" d="M263.17,73.546,215.687,63.434c-4.818.438-18.6,12.012-18.6,19.26l10.1,51.378a46.375,46.375,0,0,0,13.287,1.958A45.912,45.912,0,0,0,263.17,73.546Z" transform="translate(-197.085 -63.434)"/></g><g transform="translate(211.512 0)"><path class="b" d="M300.489,73.546c0-32.674-25.873-59.123-57.82-59.123s-57.82,26.449-57.82,59.123c0,21.568,8.761,40.74,24.647,51.875a55.158,55.158,0,0,0,19.682,8.651V82.693c0-7.248,3.679-8.709,8.5-9.148h62.813Z" transform="translate(-184.849 -14.423)"/></g><g transform="translate(211.512 0)"><path class="d" d="M300.489,23.161a56.427,56.427,0,0,0-30.253-8.738c-31.947,0-57.82,26.449-57.82,59.123,0,21.568,8.761,40.74,24.647,51.875a53.652,53.652,0,0,0,13.4,6.839c-11.739-11.9-18.105-28.962-18.105-47.784,0-34.135,27.07-61.812,60.448-61.812a55.526,55.526,0,0,1,7.679.5Z" transform="translate(-212.416 -14.423)"/></g><g transform="translate(259.899 357.748)"><path class="e" d="M225.053,372.171H181.308v27.56c0,5.9,3.212,6.342,7.943,6.342h62.784C253.292,378.425,236.559,372.171,225.053,372.171Z" transform="translate(-181.308 -372.171)"/></g><g transform="translate(344.906 216.151)"><path class="d" d="M130.21,406.073c18.076-49.449,25.552-101.266-1.226-175.5h20.587c26.778,74.233,19.332,126.049,1.227,175.5-4.293,11.749-9.2,23.38-14.4,35.158H115.813C120.982,429.453,125.888,417.821,130.21,406.073Z" transform="translate(-115.813 -230.574)"/></g><g transform="translate(374.05 355.973)"><path class="g" d="M55.747,441.2l63.018-70.463a68.865,68.865,0,0,1,19.186.76L77.386,439.214a69.675,69.675,0,0,0,1.2,11.953l-3.066.7-15.682,3.6c-1.4.321-2.249.848-2.541-.438A69.963,69.963,0,0,1,55.747,441.2Z" transform="translate(-55.747 -370.395)"/></g><g transform="translate(65.146 320.866)"><path class="c" d="M266.591,335.289H446.855v15.869H298.742c-12.06,0-17.784,5.2-22.486,15.753-4.059,9.148-4.147,12.129-5.986,23.176a77.467,77.467,0,0,0-15.419,28.056c-7.329-42.319,1.169-64.442,11.74-82.854Z" transform="translate(-252.102 -335.289)"/></g><g transform="translate(64.534 349.156)"><path class="d" d="M372.973,390.086a75.883,75.883,0,0,1,57.7-26.507,77.4,77.4,0,0,1,16.791,1.841c-34.488,7.8-58.609,38.256-59.66,73.356-.058,1.929.818,2.367,2.219,2.455H358.663c-2.628,0-4.556.351-4.468-2.455a78.366,78.366,0,0,1,3.358-20.633c.058-.2.117-.38.175-.555v-.029a77.507,77.507,0,0,1,15.245-27.473Z" transform="translate(-354.192 -363.579)"/></g><g transform="translate(393.821 414.387)"><path class="i" d="M19.727,451.167l97.127-22.357a51.119,51.119,0,0,1,1.285,13.707l-77.093,17.74-3.037.7A51.107,51.107,0,0,0,57.808,491a51.371,51.371,0,0,1-41.146-39.133Z" transform="translate(-16.662 -428.81)"/></g><g transform="translate(81.827 426.807)"><path class="i" d="M332.259,441.231h97.915a60.424,60.424,0,0,1-3.592,17.564H339.823a60.194,60.194,0,0,0,14.28,35.947,59.462,59.462,0,0,1-40.386-53.512h18.542Z" transform="translate(-313.717 -441.23)"/></g><g transform="translate(67.02 279.278)"><path class="i" d="M392.8,322.663V293.7h39.569v28.962a12.66,12.66,0,0,0,12.615,12.625H405.412A12.66,12.66,0,0,1,392.8,322.663Z" transform="translate(-392.797 -293.701)"/></g><g transform="translate(255.841 59.122)"><path class="j" d="M256.16,85.265H217.146c-4.818.438-8.5,1.929-8.5,9.177v41.529a46.835,46.835,0,0,1-11.33-1.9V82.693c0-7.248,3.679-8.709,8.5-9.148H253.3a45.892,45.892,0,0,1,2.862,11.72Z" transform="translate(-197.318 -73.545)"/></g><g transform="translate(349.42 170.125)"><path class="a" d="M151.542,186.473,96.9,204.534c-2.687,2.4.35,26.829,2.161,26.04h63.515V190.36C162.581,182.44,158.463,184.193,151.542,186.473Z" transform="translate(-95.841 -184.548)"/></g><g transform="translate(318.187 188.065)"><path class="h" d="M155.16,230.574h27.625c14.835,0,15.273-24.608-2.161-26.04l-25.464-2.046-6.833,14.467Z" transform="translate(-148.327 -202.488)"/></g><g transform="translate(232.02 151.551)"><path class="b" d="M230.6,179.868l-9.14-7.862c-22.894-19.727-51.834,13.561-21.23,33.434l25.756,16.717,12.966,8.417h41.029V202.488l-25.493-2.075Z" transform="translate(-186.981 -165.974)"/></g><g transform="translate(325.02 202.298)"><path class="j" d="M148.319,230.574V216.955h36.064a11.32,11.32,0,0,0,2.482-.234c.847,6.78-2.979,13.853-10.922,13.853H148.319Z" transform="translate(-148.319 -216.721)"/></g><g transform="translate(232.016 154.924)"><path class="d" d="M200.234,205.44c-18.514-12.041-15.243-28.962-4.7-36.093-.847,7.306,2.628,15.694,13.141,22.5l20.062,13.005,5.665,3.712,12.966,8.388h32.619v13.619H238.956l-12.966-8.417Z" transform="translate(-186.981 -169.347)"/></g><g transform="translate(350.484 182.863)"><path class="c" d="M131.194,204.534l21.989-7.248c7.359,7.891,10.922,23.263,6.191,33.288H133.355c7.943,0,11.768-7.073,10.922-13.853-.759-5.874-4.994-11.515-13.083-12.187Z" transform="translate(-131.194 -197.286)"/></g></svg>